# xmcd
#
# Track frame offsets:
#	150
#	14087
#	31150
#	43592
#	57020
#	73250
#	87912
#	101862
#	114332
#	122060
#	132785
#	146757
#	163055
#	176275
#	188962
#	204997
#	214775
#	227795
#
# Disc length: 3198 seconds
#
# Revision: 1
# Processed by: cddbd v1.5.1PL0 Copyright (c) Steve Scherf et al.
# Submitted via: CDex 1.50Beta5
#
DISCID=020c7c12
DTITLE=Song Collection - なつかしのテレビアニメ主題歌
DYEAR=1900
DGENRE=(Doyo)
TTITLE0=君は何かができる
TTITLE1=ありがとう
TTITLE2=がんばれドカベン
TTITLE3=ああ青春よ いつまでも
TTITLE4=野球狂の詩
TTITLE5=勇気のテーマ
TTITLE6=行け行け飛雄馬
TTITLE7=友情の虹
TTITLE8=アパッチ野球軍
TTITLE9=みんな みんな
TTITLE10=グランプリの鷹
TTITLE11=レーサーブルース
TTITLE12=アタックNo.1
TTITLE13=バン・ボ・ボン
TTITLE14=あしたのジョー
TTITLE15=ジョーの子守唄
TTITLE16=男どアホウ!甲子園
TTITLE17=どアホウ讃歌
EXTD=
EXTT0=
EXTT1=
EXTT2=
EXTT3=
EXTT4=
EXTT5=
EXTT6=
EXTT7=
EXTT8=
EXTT9=
EXTT10=
EXTT11=
EXTT12=
EXTT13=
EXTT14=
EXTT15=
EXTT16=
EXTT17=
PLAYORDER=
